<svg width="84" height="75" viewBox="0 0 84 75" fill="none" xmlns="http://www.w3.org/2000/svg">
<path d="M83.4891 36.6402L59.1782 27.5051L63.4062 1.28213C63.4591 0.798513 63.142 0.422363 62.7192 0.422363C62.6135 0.422363 62.5078 0.422363 62.4021 0.476099L42.4778 10.9546C42.3192 11.0083 42.1607 11.062 42.0021 11.062C41.8436 11.062 41.685 11.0083 41.5265 10.9546L21.5493 0.529835C21.4436 0.476099 21.3379 0.476099 21.2322 0.476099C20.8094 0.476099 20.4395 0.852249 20.5452 1.33587L24.7731 27.3977L0.462303 36.6402C-0.0661934 36.8551 -0.171893 37.6074 0.303754 37.9298L19.1711 50.3428C19.4353 50.504 19.6467 50.8264 19.6467 51.1488L20.7566 73.9327C20.7566 74.3626 21.1265 74.5776 21.4436 74.5776C21.6021 74.5776 21.7607 74.5238 21.9192 74.4164L41.8964 57.812L62.085 74.4164C62.2435 74.5238 62.4021 74.5776 62.5606 74.5776C62.9306 74.5776 63.2477 74.3089 63.2477 73.9327L64.3575 51.1488C64.3575 50.8264 64.5689 50.504 64.8331 50.3428L83.7004 37.9298C84.1761 37.6074 84.0704 36.8551 83.4891 36.6402ZM25.3545 6.92438L39.7824 14.4474C40.4695 14.8235 41.2622 14.9847 42.0021 14.9847C42.7948 14.9847 43.5347 14.7698 44.2218 14.4474L58.6497 6.92438L54.1575 34.7594H41.8436L35.7659 24.1735C35.5545 23.8511 35.2374 23.6362 34.8674 23.6362C34.7617 23.6362 34.6032 23.6362 34.4975 23.6899L28.4198 26.0005L25.3545 6.92438ZM24.2975 67.4307L23.5047 50.9339C23.4519 49.3218 22.6063 47.8709 21.2851 47.0112L7.64985 38.0911L33.6519 28.2037L39.7296 38.9508L33.5462 49.8592C33.2819 50.2891 33.3876 50.8801 33.8104 51.2026L38.8311 55.3402L24.2975 67.4307ZM62.7192 47.0649C61.3979 47.9247 60.5523 49.3755 60.4995 50.9876L59.7067 67.4845L38.0912 49.698L44.3275 38.6821H56.4829C57.0114 38.6821 57.4342 38.306 57.5399 37.7686L58.544 31.4278L76.2487 38.0911L62.7192 47.0649Z" fill="#C0C1C2"/>
</svg>
